<svg width="94" height="103" viewBox="0 0 94 103" fill="none" xmlns="http://www.w3.org/2000/svg">
<path fill-rule="evenodd" clip-rule="evenodd" d="M23.0566 30.7796C23.6493 30.8479 24.3515 31.2174 24.7458 31.6688C25.01 31.9713 25.3368 32.5698 25.386 32.8415C25.4285 33.0758 25.4284 33.0495 25.4244 43.2267C25.4213 51.4702 25.4315 52.636 25.5121 53.1583C25.6083 53.782 25.6146 53.8146 25.6673 53.9523C25.6855 53.9999 25.7572 54.2338 25.8267 54.472C25.9404 54.8615 26.4256 55.9244 26.5718 56.1042C26.6037 56.1433 26.783 56.3832 26.9703 56.6373C27.1804 56.9222 28.6065 58.399 30.692 60.491C34.2076 64.0177 34.1338 63.9518 34.5611 63.9518C34.9583 63.9518 35.3285 63.7156 35.4381 63.3924C35.5093 63.182 35.4956 62.8146 35.4084 62.6017C35.3732 62.5158 34.6375 61.7493 33.7735 60.8983C32.9094 60.0474 31.7461 58.8964 31.1883 58.3407C30.6305 57.7849 29.8157 56.9794 29.3777 56.5507C28.4817 55.6736 28.3137 55.4573 28.1439 54.9628C27.8059 53.9785 28.0001 53.042 28.6791 52.3808C28.9487 52.1182 29.3639 51.8684 29.691 51.772C29.7688 51.7491 30.1049 51.7319 30.4379 51.7339C30.9235 51.7369 31.0973 51.7617 31.3152 51.8592C31.6407 52.0047 32.2547 52.4918 32.8672 53.0904C33.1132 53.3309 33.6823 53.8766 34.1318 54.3029C34.5812 54.7294 35.0994 55.2212 35.2833 55.3958C35.4671 55.5705 35.8801 55.9576 36.2012 56.256C36.5221 56.5545 37.0031 57.0092 37.2699 57.2665C37.5368 57.5238 37.931 57.8903 38.1461 58.0808C38.3611 58.2714 38.644 58.5312 38.7748 58.6582C38.9055 58.7853 39.2315 59.0971 39.4992 59.3511C39.767 59.6052 40.2456 60.0599 40.5629 60.3616C40.8803 60.6633 41.3853 61.1413 41.6853 61.4236C42.4302 62.1249 42.9979 62.6619 43.645 63.2776C43.9455 63.5635 44.5093 64.0934 44.8978 64.4552C45.2863 64.817 45.6042 65.1438 45.6042 65.1814C45.6042 65.2413 45.0943 65.734 44.3776 66.3668C44.1157 66.598 43.7975 66.8988 42.9804 67.6878C42.6632 67.994 42.1752 68.4521 41.896 68.7059C41.6167 68.9596 41.1812 69.3697 40.9283 69.6171C40.6753 69.8645 40.4426 70.0509 40.411 70.0314C40.3795 70.0119 40.3574 70.0173 40.362 70.0436C40.38 70.1473 40.354 70.2355 40.3053 70.2355C40.2771 70.2355 40.1119 70.3719 39.9381 70.5386C38.8821 71.5516 37.9294 72.4508 37.7094 72.6419C37.3862 72.9228 37.1834 73.1081 36.7523 73.5165C35.4849 74.7171 34.9196 75.2283 34.8735 75.2157C34.8444 75.2078 34.8262 75.2207 34.833 75.2446C34.8473 75.2943 34.3043 75.8364 34.2402 75.8364C34.1899 75.8364 33.645 75.468 33.3707 75.2485C33.2642 75.1633 33.0084 74.9684 32.8022 74.8155C32.2041 74.3716 31.46 73.7603 31.4279 73.6865C31.4173 73.6622 31.374 73.6423 31.3317 73.6423C31.2895 73.6423 31.2462 73.6221 31.2356 73.5974C31.2251 73.5728 30.905 73.2897 30.5244 72.9684C30.1438 72.6471 29.7286 72.2879 29.6017 72.1702C29.4749 72.0526 29.1386 71.7445 28.8545 71.4857C27.6304 70.3704 23.1719 65.9525 23.1719 65.8547C23.1719 65.8188 23.1448 65.7894 23.1115 65.7894C22.8817 65.7894 21.3753 63.8076 21.4783 63.6407C21.4999 63.6057 21.4912 63.5936 21.4588 63.6136C21.4259 63.6339 21.2559 63.3717 21.0715 63.0162C20.8906 62.6677 20.7559 62.3826 20.772 62.3826C20.788 62.3826 20.739 62.2462 20.663 62.0794C20.5474 61.8261 20.4151 61.4091 20.3194 60.9968C20.3083 60.9491 20.2602 60.7413 20.2125 60.5348C20.1648 60.3284 20.1076 60.0036 20.0853 59.8131C20.0631 59.6225 20.0348 59.3887 20.0225 59.2934C19.9858 59.0106 19.9971 33.1974 20.0341 32.9849C20.0527 32.8776 20.0829 32.7509 20.1012 32.7033C20.1195 32.6556 20.137 32.6037 20.1401 32.5878C20.1641 32.4648 20.3125 32.1836 20.3532 32.1836C20.3811 32.1836 20.3983 32.1641 20.3915 32.1403C20.3659 32.0506 20.6946 31.6121 20.9338 31.4167C21.1971 31.2017 21.5852 30.9819 21.7658 30.9454C21.8256 30.9334 21.9434 30.8968 22.0276 30.8641C22.2102 30.7934 22.7737 30.7471 23.0566 30.7796ZM71.9604 30.8805C72.3252 30.9814 72.786 31.2217 73.0854 31.4674C73.3846 31.7129 73.7564 32.2798 73.9019 32.7123C74.0008 33.0061 74.0053 33.6434 73.9974 46.0416C73.9887 59.4535 73.9887 59.4593 73.7818 60.4485C73.7102 60.7908 73.463 61.582 73.1995 62.3127C73.0869 62.6248 72.7003 63.4018 72.4322 63.855C72.0656 64.4748 71.0177 65.7316 70.8677 65.7316C70.8292 65.7316 70.8116 65.7541 70.8285 65.7816C70.8655 65.8414 70.6679 66.0333 70.6124 65.9916C70.5912 65.9756 70.5873 65.9804 70.6038 66.0023C70.6509 66.0645 70.2166 66.4817 70.1463 66.4417C70.1119 66.4221 70.101 66.4254 70.1222 66.449C70.1758 66.5089 69.9894 66.7152 69.9203 66.6725C69.8893 66.6533 69.8799 66.6633 69.8992 66.6948C69.9459 66.7703 65.7236 70.9529 64.6346 71.91C64.5804 71.9576 64.3348 72.1785 64.0888 72.4008C63.8428 72.6231 63.6021 72.8276 63.554 72.8552C63.5059 72.8828 63.3725 72.9962 63.2574 73.1072C63.0944 73.2646 62.2895 73.9289 61.895 74.2316C61.8633 74.256 61.6969 74.3926 61.5251 74.5352C61.3534 74.6779 61.1069 74.8653 60.9773 74.9517C60.8477 75.0382 60.6898 75.1532 60.6263 75.2074C60.5629 75.2615 60.4309 75.3537 60.3329 75.4123C60.2349 75.4709 60.0435 75.5927 59.9076 75.683L59.6604 75.8471L59.3648 75.5632C59.2023 75.407 58.799 75.0214 58.4685 74.7062C58.1379 74.3909 57.7186 73.9902 57.5366 73.8155C57.3546 73.6408 57.1319 73.4352 57.0419 73.3586C56.8887 73.2284 55.8681 72.2864 55.0972 71.5638C54.9107 71.389 54.7276 71.22 54.6904 71.1882C54.6532 71.1565 54.3776 70.8966 54.078 70.6108C53.7784 70.325 53.2526 69.8313 52.9096 69.5137C52.5666 69.1961 52.1352 68.7934 51.9509 68.6187C51.7666 68.444 51.3369 68.0413 50.9959 67.7237C50.6549 67.4061 50.254 67.0294 50.105 66.8865C49.7428 66.539 48.8709 65.7442 48.661 65.5701C48.5684 65.4932 48.4534 65.3705 48.4055 65.2973C48.3231 65.1714 48.3301 65.1525 48.5363 64.9427C48.656 64.8209 49.0487 64.4483 49.4088 64.1148C49.7689 63.7814 50.1765 63.3969 50.3147 63.2604C50.4577 63.1193 50.594 63.0298 50.6313 63.0529C50.6704 63.0771 50.6808 63.0676 50.6572 63.0294C50.635 62.9934 50.7378 62.8572 50.8926 62.7174C51.0438 62.5809 51.2686 62.3724 51.3923 62.2541C51.5159 62.1357 51.6435 62.0553 51.6759 62.0753C51.7082 62.0953 51.7181 62.0849 51.698 62.0522C51.6777 62.0194 51.8359 61.8308 52.0494 61.633C52.263 61.4352 52.6894 61.0269 52.9971 60.7257C53.3498 60.3805 53.5822 60.1939 53.6259 60.221C53.6656 60.2456 53.6804 60.2397 53.6603 60.2073C53.6411 60.1762 53.98 59.8148 54.4135 59.4044C55.7682 58.1216 56.0071 57.8962 56.2149 57.7049C56.3259 57.6026 56.7454 57.2085 57.1472 56.8291C57.5489 56.4498 57.9999 56.0305 58.1494 55.8975C58.4801 55.6032 58.7239 55.3742 59.4747 54.6526C60.1342 54.0188 61.6348 52.6041 61.86 52.4039C62.5885 51.7562 63.3643 51.5575 64.2616 51.789C64.855 51.942 65.4938 52.4878 65.7798 53.0861C65.9158 53.3704 65.9316 53.4704 65.9305 54.0389C65.9293 54.7131 65.9169 54.7876 65.7404 55.1768C65.6089 55.467 65.4293 55.6909 64.9429 56.1715C64.7479 56.3642 64.3442 56.7629 64.0459 57.0575C63.7474 57.3522 63.4831 57.573 63.4584 57.5483C63.4337 57.5236 63.4222 57.5351 63.4328 57.5738C63.4602 57.6741 59.9263 61.2278 59.7991 61.2278C59.7625 61.2278 59.7325 61.2623 59.7325 61.3047C59.7325 61.347 59.4948 61.6003 59.2043 61.8676C58.5989 62.4247 58.4508 62.6823 58.4717 63.1418C58.4866 63.4699 58.6384 63.7065 58.9312 63.8581C59.1548 63.9739 59.6125 63.9769 59.8306 63.864C59.9286 63.8132 61.3752 62.4009 63.0453 60.7254C66.6776 57.0817 66.8022 56.9521 67.0482 56.5653C67.1551 56.3973 67.2679 56.2791 67.3016 56.2999C67.3355 56.3209 67.3454 56.3102 67.3241 56.2756C67.2759 56.1976 67.8328 55.2704 67.8944 55.326C67.9193 55.3485 67.9224 55.3368 67.9014 55.3C67.852 55.2135 67.9176 55.0404 67.9842 55.0816C68.0122 55.0989 68.0211 55.0764 68.0039 55.0316C67.9867 54.9867 68.0535 54.7123 68.1523 54.4219C68.2511 54.1314 68.3804 53.6146 68.4397 53.2734C68.5606 52.5778 68.5632 52.2771 68.5596 39.5065C68.5576 32.3509 68.5409 32.7612 68.8588 32.1286C68.9908 31.8661 69.5369 31.2597 69.6414 31.2597C69.6732 31.2597 69.708 31.2335 69.7186 31.2014C69.7293 31.1693 69.7899 31.1328 69.8532 31.1203C70.0969 31.0719 70.141 31.0553 70.2195 30.9821C70.264 30.9406 70.3373 30.9208 70.3824 30.9381C70.4276 30.9555 70.4507 30.9473 70.4338 30.92C70.3537 30.7901 71.5239 30.7599 71.9604 30.8805Z" fill="#C1C1C1"/>
<path d="M49.4784 40.4098C49.0573 40.0577 48.4234 39.7232 47.8816 39.5669C46.8171 39.2599 45.3449 39.6218 44.4762 40.4039C43.7885 41.023 43.2812 41.9921 43.1801 42.8799C42.9959 44.4974 43.9696 46.1408 45.4752 46.7534C46.3923 47.1265 47.2584 47.1675 48.1178 46.8787C49.7762 46.3213 50.7135 45.069 50.7758 43.3276C50.7986 42.6917 50.7914 42.6401 50.6056 42.1101C50.3576 41.4026 49.974 40.824 49.4784 40.4098Z" fill="#C1C1C1"/>
<path d="M51.5793 50.3958C50.5587 49.3777 49.4232 48.7865 48.0413 48.5539C47.1283 48.4002 45.8919 48.4815 45.0192 48.7525C43.6108 49.19 42.3317 50.1562 41.5295 51.3884C40.7837 52.5341 40.4145 53.8251 40.414 55.2893L40.4137 55.9624L41.8698 57.3368C42.6707 58.0926 43.6373 59.0131 44.0179 59.3823C44.3985 59.7515 45.0732 60.3931 45.5172 60.8082C45.9613 61.2232 46.4533 61.6952 46.6107 61.8571C46.7681 62.019 46.9238 62.151 46.9567 62.1505C46.9896 62.1499 47.242 61.9356 47.5176 61.6741C47.7931 61.4126 48.35 60.8869 48.7552 60.5058C49.1604 60.1247 50.3916 58.9478 51.4913 57.8905L53.4907 55.968L53.5302 55.4365C53.6615 53.6674 52.9085 51.7219 51.5793 50.3958Z" fill="#C1C1C1"/>
<path d="M50.7645 22.5165C50.2856 22.2212 48.2063 20.8135 47.6285 20.3933C47.331 20.177 47.0421 20 46.9865 20C46.896 20 46.1519 20.4966 44.8248 21.4425C43.8394 22.145 40.722 24.0419 40.553 24.0419C40.5336 24.0419 40.4488 24.0907 40.3646 24.1504C40.1484 24.3035 37.4495 25.6477 36.7227 25.9642C35.3554 26.5596 33.7642 27.1319 31.7057 27.7687C30.0871 28.2694 25.3092 29.2334 24.4253 29.2377C24.1274 29.2391 24.1545 29.3268 24.4868 29.4373C24.9066 29.5769 25.5974 30.0641 26.0459 30.5369C26.5106 31.0267 26.8496 31.6609 27.0342 32.3856C27.1503 32.8412 27.1519 32.9751 27.1521 42.1296C27.1522 47.2347 27.1691 51.4116 27.1898 51.4116C27.2105 51.4116 27.3334 51.3011 27.4629 51.1662C27.7814 50.8341 28.277 50.5142 28.9051 50.2353C29.4038 50.0138 29.4602 50.002 30.1299 49.9788L30.8319 49.9544L30.8312 44.086C30.8308 40.8583 30.8071 37.9967 30.7786 37.7268C30.7122 37.0969 30.5839 36.5319 30.4104 36.1043C30.3347 35.9176 30.2944 35.7516 30.3209 35.7351C30.3474 35.7187 30.5855 35.6642 30.85 35.614C31.1145 35.5638 31.8239 35.4065 32.4265 35.2645C34.7759 34.7108 37.3288 33.9332 38.3662 33.4553C38.4296 33.4261 38.8448 33.2602 39.2888 33.0867C40.7822 32.5033 42.8479 31.5026 44.4212 30.6005C45.178 30.1665 45.373 30.0506 46.3396 29.4597C47.0415 29.0307 47.0046 29.0364 47.391 29.297C48.1322 29.7968 49.6642 30.6891 50.7357 31.2448C51.1956 31.4834 51.6261 31.7121 51.6925 31.7532C51.8619 31.8579 53.6422 32.6705 54.3687 32.9746C54.9236 33.2069 57.3531 34.1059 57.8286 34.2549C57.9397 34.2897 58.303 34.4071 58.636 34.5159C59.7031 34.8644 62.2566 35.4674 63.3119 35.62C63.7253 35.6799 63.7418 35.7059 63.5749 36.0356C63.3788 36.4231 63.2035 37.1349 63.1423 37.7922C63.0965 38.2837 63.0809 47.3882 63.1227 49.196L63.1402 49.954L63.8147 49.9794C64.4277 50.0025 64.5358 50.024 65.0008 50.2152C65.6425 50.4791 66.1781 50.826 66.5037 51.1886C66.6423 51.343 66.7648 51.4693 66.7758 51.4693C66.7868 51.4693 66.7919 47.3314 66.7872 42.2739C66.778 32.4805 66.7747 32.6081 67.0539 31.8948C67.3525 31.1323 67.7217 30.6273 68.3528 30.1189C68.8288 29.7353 69.1176 29.5623 69.4917 29.4368C69.6423 29.3863 69.7656 29.3248 69.7656 29.3003C69.7656 29.2757 69.5734 29.2394 69.3385 29.2195C68.2715 29.1292 64.9577 28.5117 63.5376 28.1387C62.096 27.7599 59.87 27.0299 58.4918 26.4839C56.3419 25.6321 53.4998 24.2075 51.5718 23.0153C51.2864 22.8387 50.9231 22.6143 50.7645 22.5165Z" fill="#5394A7"/>
<path d="M52.754 71.7627C50.1618 69.3736 49.2479 68.519 47.585 66.9296C47.2943 66.6517 47.017 66.4243 46.9689 66.4243C46.9207 66.4243 46.7561 66.5446 46.6032 66.6917C46.4503 66.8388 46.0406 67.2221 45.6928 67.5434C45.3449 67.8647 44.813 68.3617 44.5106 68.6477C44.2083 68.9337 43.6238 69.4793 43.2118 69.8602C42.7999 70.2412 42.2035 70.7997 41.8866 71.1014C40.7043 72.2271 40.2618 72.6426 39.953 72.9173C39.7786 73.0725 39.4283 73.3982 39.1746 73.6411C38.9208 73.8839 38.298 74.4691 37.7906 74.9415C37.2831 75.414 36.5941 76.0633 36.2594 76.3845L35.6511 76.9684L36.5189 77.5526C37.277 78.0627 38.0106 78.5296 39.0592 79.1691C41.1309 80.4326 45.4596 82.5482 46.7068 82.9069L47.0308 83L47.5718 82.8007C48.6713 82.3957 49.4817 82.0285 51.2269 81.1449C52.2101 80.647 53.1832 80.1411 53.3894 80.0207C53.5955 79.9002 54.0237 79.6545 54.3409 79.4747C55.7984 78.6483 58.291 77.0433 58.291 76.9312C58.291 76.9059 58.2673 76.8766 58.2383 76.866C58.2092 76.8554 57.8401 76.5219 57.4178 76.125C55.765 74.5709 54.6152 73.4943 54.312 73.217C54.1376 73.0573 53.7868 72.7304 53.5325 72.4904C53.2783 72.2505 52.928 71.923 52.754 71.7627Z" fill="#5394A7"/>
</svg>
